<?xml version="1.0" ?><svg data-name="Слой 1" id="Слой_1" viewBox="0 0 32 32" xmlns="http://www.w3.org/2000/svg"><path d="M11.8432,6.0545h-.7871a5.4464,5.4464,0,0,0-5.4405,5.44v2.5288a.47.47,0,0,0,.4708.47H16.8129a.47.47,0,0,0,.4707-.47V11.4945A5.4463,5.4463,0,0,0,11.8432,6.0545Zm4.499,7.4981H6.5571V11.4945a4.504,4.504,0,0,1,4.499-4.5h.7871a4.504,4.504,0,0,1,4.499,4.5Z"/><path d="M28.767,20.33h1.4414a.47.47,0,1,0,0-.94H28.767c-.0132,0-.0244.0063-.0371.0073V18.94a.47.47,0,0,0-.4707-.47H26.57a2.0184,2.0184,0,0,0-1.9776,1.6319A1.2555,1.2555,0,0,1,23.5,18.868V11.0838a1.5386,1.5386,0,0,0-3.0771,0v8.4478a.6065.6065,0,1,1-1.2129,0V4.7274a.471.471,0,0,0-.4707-.4707H4.1078a.471.471,0,0,0-.4707.4707V24.199H1.7914a.471.471,0,0,0-.4707.4707v2.6036a.47.47,0,0,0,.4707.47H21.0571a.47.47,0,0,0,.4707-.47V24.67a.471.471,0,0,0-.4707-.4707H19.21V20.9549a1.5474,1.5474,0,0,0,2.1543-1.4233V11.0838a.5972.5972,0,1,1,1.1943,0V18.868A2.2068,2.2068,0,0,0,24.5864,21.06,2.0154,2.0154,0,0,0,26.57,22.7469h1.6894a.47.47,0,0,0,.4707-.47V21.82c.0127.001.0239.0074.0371.0074h1.4414a.47.47,0,1,0,0-.9405H28.767c-.0132,0-.0244.0064-.0371.0074v-.5718C28.7426,20.3236,28.7538,20.33,28.767,20.33Zm-8.1806,6.4727H2.2621V25.14H20.5864ZM4.5785,24.199V5.1971h13.69V24.199Zm23.21-2.3925H26.57a1.0766,1.0766,0,0,1-1.0752-1.0752v-.2452A1.0765,1.0765,0,0,1,26.57,19.411h1.2187Z"/><path d="M14.3481,18.31H12.5619l1.3135-2.52a.47.47,0,0,0-.417-.6875H10.7621a.47.47,0,0,0-.4072.2348l-2.21,3.8282a.47.47,0,0,0,.4073.7055H9.9653L8.4037,22.9051a.47.47,0,0,0,.418.6855.4657.4657,0,0,0,.29-.1l5.5264-4.34a.47.47,0,0,0-.29-.84ZM10.226,21.42l.9277-1.8046a.47.47,0,0,0-.4179-.6851H9.3666l1.667-2.8877H12.683l-1.3134,2.52a.47.47,0,0,0,.4169.6875h1.2012Z"/></svg>